<svg width="875" height="895" viewBox="0 0 875 895" fill="none" xmlns="http://www.w3.org/2000/svg">
<g clip-path="url(#clip0_113_3444)">
<path d="M509.879 577.101L531.031 587.863C520.393 609.138 504.066 620.518 482.048 622.002C480.564 622.002 479.327 622.002 478.337 622.002C469.431 622.002 461.02 620.147 453.103 616.436C445.434 612.973 439.621 608.272 435.662 602.335C431.457 596.15 428.241 588.357 426.014 578.957C424.035 569.803 422.922 562.876 422.674 558.176C422.674 553.476 422.798 549.394 423.046 545.93V390.446C412.16 411.474 400.904 425.946 389.277 433.863L382.597 438.687L375.547 433.863C364.167 425.946 353.034 411.474 342.149 390.446V558.176H318.029V297.303H342.149V319.94C342.149 327.361 346.478 341.462 355.137 362.243C363.796 382.777 372.949 398.115 382.597 408.258C392.246 398.115 401.399 382.777 410.058 362.243C418.716 341.462 423.046 327.361 423.046 319.94V297.303H447.166V319.94L446.795 547.414C446.548 553.104 446.919 560.031 447.908 568.195C449.145 576.606 451.619 583.533 455.33 588.976C457.062 591.45 460.278 593.676 464.978 595.655C469.678 597.635 474.75 598.5 480.193 598.253C493.304 597.264 503.2 590.213 509.879 577.101Z" fill="black"/>
<path d="M556.984 318.455H489.075V403.062H539.172V427.183H489.075V531.086H556.984V555.207H464.955V294.334H556.984V318.455Z" fill="black"/>
<path d="M109.806 506.252C109.783 507.75 109.406 509.124 108.676 510.374C107.907 511.623 106.886 512.612 105.613 513.341C104.34 514.03 102.955 514.363 101.457 514.339C99.9193 514.315 98.5256 513.938 97.2755 513.208C96.0261 512.439 95.0566 511.418 94.3672 510.145C93.6384 508.872 93.2859 507.486 93.3098 505.988C93.3343 504.451 93.7311 503.058 94.5002 501.808C95.2305 500.519 96.232 499.529 97.5047 498.84C98.7781 498.111 100.183 497.759 101.721 497.784C103.219 497.807 104.592 498.204 105.842 498.973C107.092 499.703 108.081 500.724 108.809 502.037C109.499 503.309 109.831 504.714 109.806 506.252Z" fill="black"/>
<path d="M89.6423 323.528L129.012 335.928L126.525 343.824L100.918 335.759L123.203 354.372L121.32 360.351L92.3727 362.889L117.98 370.955L115.493 378.851L76.123 366.451L78.9477 357.483L112.165 354.181L86.8354 332.44L89.6423 323.528Z" fill="black"/>
<path d="M108.07 284.253L144.708 303.264L140.895 310.612L104.257 291.602L108.07 284.253Z" fill="black"/>
<path d="M133.918 242.481C136.495 238.993 139.437 236.437 142.745 234.813C146.077 233.157 149.538 232.553 153.129 233C156.711 233.393 160.167 234.819 163.496 237.279C166.825 239.739 169.204 242.623 170.631 245.933C172.05 249.187 172.457 252.649 171.852 256.32C171.271 259.959 169.692 263.523 167.115 267.011L158.54 278.615L125.343 254.086L133.918 242.481ZM161.279 263.066C163.856 259.579 164.897 256.181 164.4 252.873C163.903 249.564 161.927 246.633 158.471 244.08C155.015 241.526 151.617 240.486 148.277 240.959C144.905 241.409 141.931 243.378 139.354 246.866L135.875 251.574L157.8 267.775L161.279 263.066Z" fill="black"/>
<path d="M180.995 189.149C184.213 186.242 187.604 184.321 191.168 183.386C194.762 182.424 198.274 182.518 201.705 183.67C205.138 184.765 208.242 186.849 211.017 189.921C213.792 192.992 215.55 196.292 216.292 199.818C217.037 203.29 216.749 206.764 215.428 210.242C214.136 213.693 211.881 216.872 208.663 219.779L197.956 229.451L170.287 198.821L180.995 189.149ZM203.726 214.755C206.944 211.848 208.638 208.725 208.808 205.384C208.978 202.043 207.622 198.778 204.742 195.589C201.862 192.4 198.738 190.706 195.37 190.507C191.977 190.279 188.671 191.618 185.453 194.525L181.108 198.45L199.382 218.68L203.726 214.755Z" fill="black"/>
<path d="M250.045 179.477L261.561 172.239L265.054 177.796L246.529 189.44L224.564 154.493L231.573 150.087L250.045 179.477Z" fill="black"/>
<path d="M280.592 131.216L284.704 140.712L297.457 135.19L300.065 141.213L287.313 146.736L291.66 156.775L306.041 150.548L308.719 156.734L286.742 166.251L270.316 128.319L292.294 118.802L294.972 124.988L280.592 131.216Z" fill="black"/>
<path d="M368.191 97.7475L376.962 138.081L368.872 139.841L363.167 113.606L358.067 142.19L351.941 143.522L335.373 119.65L341.078 145.885L332.988 147.644L324.217 107.31L333.405 105.312L352.755 132.513L359.061 99.7329L368.191 97.7475Z" fill="black"/>
<path d="M411.431 94.2558L413.107 135.498L404.835 135.834L403.159 94.592L411.431 94.2558Z" fill="black"/>
<path d="M455.474 137.372C452.612 137.066 450.077 136.299 447.869 135.072C445.701 133.848 444.048 132.244 442.913 130.259C441.777 128.274 441.324 126.025 441.553 123.512L450.373 124.456C450.31 126.154 450.756 127.55 451.709 128.643C452.702 129.741 454.139 130.39 456.021 130.591C457.942 130.797 459.499 130.508 460.693 129.723C461.891 128.9 462.57 127.744 462.73 126.254C462.86 125.039 462.594 123.999 461.933 123.136C461.272 122.272 460.397 121.564 459.306 121.011C458.259 120.423 456.784 119.75 454.883 118.991C452.301 117.922 450.208 116.925 448.602 116C447.039 115.04 445.732 113.73 444.681 112.071C443.672 110.377 443.307 108.237 443.584 105.65C443.844 103.219 444.678 101.168 446.086 99.4945C447.494 97.8213 449.346 96.6318 451.642 95.9259C453.942 95.1808 456.503 94.9592 459.325 95.2613C463.559 95.7143 466.878 97.1201 469.282 99.4787C471.729 101.802 472.893 104.821 472.773 108.535L463.718 107.566C463.791 106.147 463.307 104.925 462.267 103.902C461.27 102.844 459.85 102.216 458.008 102.019C456.4 101.847 455.063 102.12 453.995 102.839C452.966 103.561 452.368 104.706 452.2 106.274C452.082 107.372 452.336 108.331 452.962 109.151C453.632 109.937 454.47 110.621 455.478 111.205C456.53 111.753 458.004 112.427 459.901 113.224C462.483 114.293 464.575 115.31 466.176 116.275C467.778 117.239 469.103 118.57 470.15 120.268C471.197 121.966 471.585 124.089 471.312 126.637C471.077 128.832 470.291 130.81 468.953 132.57C467.614 134.33 465.787 135.661 463.47 136.563C461.157 137.425 458.492 137.695 455.474 137.372Z" fill="black"/>
<path d="M535.49 111.817L533.642 118.239L523.072 115.198L513.508 148.444L505.552 146.155L515.115 112.909L504.545 109.869L506.392 103.447L535.49 111.817Z" fill="black"/>
<path d="M599.113 147.985L593.813 156.873L605.748 163.991L602.386 169.629L590.451 162.511L584.847 171.907L598.307 179.934L594.854 185.724L574.284 173.457L595.456 137.955L616.025 150.222L612.572 156.012L599.113 147.985Z" fill="black"/>
<path d="M671.246 193.559L632.721 214.744L625.14 208.142L640.832 167.072L647.521 172.898L634.529 205.105L664.601 187.772L671.246 193.559Z" fill="black"/>
<path d="M693.929 228.588L685.853 235.059L694.543 245.904L689.421 250.009L680.731 239.164L672.194 246.005L681.993 258.234L676.732 262.45L661.756 243.76L694.013 217.912L708.989 236.602L703.729 240.817L693.929 228.588Z" fill="black"/>
<path d="M708.416 314.643L704.47 307.365L720.438 277.385L695.536 290.885L691.59 283.607L727.93 263.907L731.875 271.185L715.856 301.193L740.809 287.665L744.755 294.943L708.416 314.643Z" fill="black"/>
<path d="M767.075 354.237L760.717 356.293L757.333 345.827L724.417 356.471L721.869 348.594L754.785 337.95L751.401 327.484L757.759 325.428L767.075 354.237Z" fill="black"/>
<path d="M735.124 405.446C734.725 402.596 734.852 399.95 735.505 397.51C736.164 395.109 737.318 393.116 738.966 391.531C740.615 389.947 742.686 388.96 745.18 388.571L746.411 397.355C744.748 397.708 743.503 398.479 742.675 399.67C741.852 400.9 741.572 402.452 741.834 404.326C742.103 406.239 742.762 407.679 743.813 408.647C744.904 409.609 746.191 409.985 747.674 409.778C748.884 409.608 749.828 409.097 750.505 408.246C751.182 407.395 751.656 406.373 751.926 405.181C752.242 404.022 752.536 402.428 752.809 400.399C753.218 397.635 753.675 395.362 754.182 393.579C754.733 391.83 755.685 390.243 757.038 388.82C758.435 387.429 760.422 386.554 762.999 386.193C765.42 385.853 767.613 386.163 769.578 387.122C771.544 388.08 773.149 389.587 774.392 391.642C775.674 393.692 776.513 396.122 776.907 398.933C777.498 403.149 776.942 406.711 775.239 409.616C773.581 412.556 770.936 414.419 767.305 415.207L766.041 406.188C767.435 405.913 768.502 405.147 769.241 403.889C770.025 402.664 770.288 401.134 770.031 399.299C769.807 397.699 769.216 396.468 768.26 395.607C767.309 394.785 766.052 394.483 764.49 394.702C763.397 394.855 762.529 395.335 761.886 396.142C761.287 396.982 760.827 397.962 760.506 399.082C760.23 400.235 759.936 401.829 759.624 403.863C759.215 406.627 758.738 408.904 758.192 410.692C757.647 412.48 756.678 414.089 755.286 415.518C753.894 416.947 751.929 417.84 749.391 418.195C747.205 418.502 745.095 418.22 743.063 417.351C741.03 416.481 739.294 415.032 737.856 413.005C736.456 410.972 735.546 408.452 735.124 405.446Z" fill="black"/>
<path d="M750.158 502.93C750.401 501.452 750.976 500.148 751.881 499.018C752.825 497.895 753.981 497.067 755.347 496.533C756.707 496.038 758.126 495.912 759.605 496.156C761.122 496.406 762.445 496.983 763.574 497.889C764.697 498.833 765.506 499.985 766.001 501.345C766.535 502.712 766.681 504.134 766.437 505.612C766.187 507.129 765.59 508.449 764.646 509.572C763.734 510.74 762.598 511.572 761.238 512.067C759.872 512.601 758.43 512.743 756.913 512.493C755.435 512.25 754.134 511.656 753.011 510.712C751.882 509.806 751.053 508.651 750.526 507.246C750.03 505.886 749.908 504.447 750.158 502.93Z" fill="black"/>
<path d="M708.729 621.777L701.647 633.389L696.043 629.971L707.436 611.291L742.675 632.784L738.364 639.852L708.729 621.777Z" fill="black"/>
<path d="M708.56 682.2L676.442 656.274L681.642 649.832L713.76 675.758L708.56 682.2Z" fill="black"/>
<path d="M667.286 725.06L662.732 720.169L675.327 708.443L668.114 700.696L658.462 709.682L653.989 704.878L663.641 695.892L651.753 683.124L657.813 677.483L685.939 707.692L667.286 725.06Z" fill="black"/>
<path d="M629.811 745.406L624.082 736.788L612.509 744.481L608.875 739.015L620.448 731.321L614.391 722.211L601.341 730.887L597.609 725.273L617.553 712.013L640.438 746.436L620.493 759.696L616.761 754.082L629.811 745.406Z" fill="black"/>
<path d="M585.522 778.472L567.568 741.305L575.023 737.704L592.977 774.871L585.522 778.472Z" fill="black"/>
<path d="M527.952 756.448C530.699 755.59 533.33 755.284 535.844 755.532C538.321 755.79 540.475 756.604 542.307 757.973C544.139 759.342 545.45 761.225 546.24 763.621L537.773 766.267C537.154 764.684 536.19 763.581 534.88 762.957C533.533 762.346 531.956 762.322 530.15 762.886C528.306 763.462 526.992 764.348 526.209 765.542C525.438 766.775 525.275 768.106 525.722 769.536C526.086 770.702 526.744 771.55 527.694 772.079C528.644 772.609 529.729 772.91 530.95 772.983C532.144 773.105 533.765 773.136 535.811 773.075C538.605 773.028 540.923 773.109 542.764 773.319C544.58 773.578 546.3 774.259 547.925 775.362C549.524 776.514 550.711 778.332 551.487 780.816C552.216 783.149 552.268 785.363 551.642 787.459C551.016 789.554 549.791 791.383 547.966 792.944C546.152 794.543 543.891 795.766 541.182 796.612C537.118 797.882 533.513 797.913 530.369 796.707C527.199 795.549 524.93 793.243 523.561 789.788L532.254 787.073C532.752 788.404 533.682 789.332 535.044 789.856C536.38 790.43 537.932 790.441 539.7 789.888C541.243 789.406 542.362 788.623 543.056 787.539C543.712 786.467 543.805 785.178 543.335 783.673C543.005 782.619 542.39 781.841 541.49 781.337C540.563 780.883 539.521 780.589 538.364 780.455C537.181 780.37 535.561 780.34 533.503 780.363C530.709 780.41 528.386 780.31 526.532 780.063C524.679 779.815 522.934 779.121 521.297 777.981C519.661 776.84 518.46 775.047 517.696 772.601C517.038 770.493 516.972 768.366 517.499 766.219C518.026 764.072 519.173 762.123 520.939 760.374C522.717 758.662 525.055 757.353 527.952 756.448Z" fill="black"/>
<path d="M432.474 779.57L448.911 779.26L451.482 771.345L460.173 771.181L446.113 812.789L436.476 812.971L420.855 771.923L429.606 771.758L432.474 779.57ZM434.846 786.15L441.143 803.302L446.789 785.924L434.846 786.15Z" fill="black"/>
<path d="M328.7 784.381C329.278 782.25 330.334 780.392 331.867 778.807C333.363 777.211 335.35 776.136 337.828 775.584C340.268 775.021 343.125 775.183 346.397 776.071L353.074 777.883L357.225 762.589L365.215 764.757L354.403 804.592L339.736 800.611C336.654 799.775 334.173 798.53 332.294 796.876C330.414 795.222 329.195 793.318 328.636 791.165C328.038 789.001 328.06 786.74 328.7 784.381ZM344.989 782.613C342.782 782.014 341.012 782.065 339.678 782.765C338.334 783.503 337.414 784.785 336.918 786.611C335.865 790.492 337.507 793.021 341.844 794.198L348.179 795.918L351.324 784.332L344.989 782.613Z" fill="black"/>
<path d="M285.169 743.988L299.941 751.203L305.836 745.329L313.648 749.144L282.17 779.773L273.509 775.543L278.312 731.887L286.176 735.727L285.169 743.988ZM284.281 750.926L282.07 769.063L295.015 756.168L284.281 750.926Z" fill="black"/>
<path d="M238.984 705.22L236.52 723.539L239.63 725.897L249.35 713.081L255.946 718.084L231.004 750.972L218.659 741.61C216.115 739.68 214.293 737.581 213.193 735.312C212.07 733.075 211.652 730.853 211.94 728.647C212.172 726.448 213.003 724.407 214.433 722.522C216.076 720.355 218.194 718.868 220.784 718.062C223.351 717.287 226.125 717.511 229.107 718.733L231.351 699.431L238.984 705.22ZM235.878 730.845L230.365 726.664C228.575 725.306 226.918 724.718 225.396 724.899C223.849 725.111 222.492 725.987 221.325 727.526C220.181 729.034 219.74 730.53 220 732.014C220.236 733.529 221.25 734.965 223.04 736.323L228.553 740.504L235.878 730.845Z" fill="black"/>
<path d="M160.579 687.308L165.499 682.786L172.941 690.885L198.414 667.478L204.015 673.573L178.543 696.981L185.985 705.08L181.065 709.602L160.579 687.308Z" fill="black"/>
<path d="M123.082 634.063L153.281 631.461L165.422 623.774L169.851 630.769L157.709 638.456L142.473 664.691L137.475 656.796L148.669 639.211L128.017 641.857L123.082 634.063Z" fill="black"/>
</g>
<defs>
<clipPath id="clip0_113_3444">
<rect width="874.834" height="894.061" fill="white" transform="translate(0.0888672 0.915771)"/>
</clipPath>
</defs>
</svg>
